# This file uses centimeters as units for non-parametric coordinates.

mtllib CatchDisk.mtl
g default
v 0.690825 -0.083968 -0.224462
v 0.587651 -0.083968 -0.426953
v 0.426953 -0.083968 -0.587651
v 0.224462 -0.083968 -0.690825
v 0.000000 -0.083968 -0.726378
v -0.224462 -0.083968 -0.690825
v -0.426953 -0.083968 -0.587651
v -0.587652 -0.083968 -0.426953
v -0.690825 -0.083968 -0.224463
v -0.726377 -0.083968 0.000000
v -0.690825 -0.083968 0.224463
v -0.587652 -0.083968 0.426954
v -0.426954 -0.083968 0.587652
v -0.224463 -0.083968 0.690825
v -0.000000 -0.083968 0.726377
v 0.224463 -0.083968 0.690824
v 0.426954 -0.083968 0.587651
v 0.587651 -0.083968 0.426954
v 0.690824 -0.083968 0.224463
v 0.726377 -0.083968 0.000000
v 1.381650 -0.083968 -0.448925
v 1.175303 -0.083968 -0.853907
v 0.853907 -0.083968 -1.175303
v 0.448925 -0.083968 -1.381650
v 0.000000 -0.083968 -1.452755
v -0.448925 -0.083968 -1.381649
v -0.853907 -0.083968 -1.175303
v -1.175305 -0.083968 -0.853907
v -1.381649 -0.083968 -0.448926
v -1.452755 -0.083968 0.000000
v -1.381649 -0.083968 0.448926
v -1.175304 -0.083968 0.853909
v -0.853909 -0.083968 1.175304
v -0.448926 -0.083968 1.381649
v -0.000000 -0.083968 1.452755
v 0.448926 -0.083968 1.381649
v 0.853909 -0.083968 1.175302
v 1.175302 -0.083968 0.853909
v 1.381649 -0.083968 0.448926
v 1.452754 -0.083968 0.000000
v 2.072477 -0.083968 -0.673389
v 1.762952 -0.083968 -1.280861
v 1.280861 -0.083968 -1.762952
v 0.673388 -0.083968 -2.072481
v 0.000000 -0.083968 -2.179131
v -0.673388 -0.083968 -2.072476
v -1.280861 -0.083968 -1.762951
v -1.762951 -0.083968 -1.280859
v -2.072476 -0.083968 -0.673388
v -2.179130 -0.083968 0.000000
v -2.072476 -0.083968 0.673388
v -1.762955 -0.083968 1.280858
v -1.280858 -0.083968 1.762955
v -0.673388 -0.083968 2.072475
v -0.000000 -0.083968 2.179130
v 0.673388 -0.083968 2.072475
v 1.280860 -0.083968 1.762955
v 1.762955 -0.083968 1.280858
v 2.072475 -0.083968 0.673388
v 2.179129 -0.083968 0.000000
v 2.072477 0.083968 -0.673389
v 1.762952 0.083968 -1.280861
v 1.280861 0.083968 -1.762952
v 0.673388 0.083968 -2.072481
v 0.000000 0.083968 -2.179131
v -0.673388 0.083968 -2.072476
v -1.280861 0.083968 -1.762951
v -1.762951 0.083968 -1.280859
v -2.072476 0.083968 -0.673388
v -2.179130 0.083968 0.000000
v -2.072476 0.083968 0.673388
v -1.762955 0.083968 1.280858
v -1.280858 0.083968 1.762955
v -0.673388 0.083968 2.072475
v -0.000000 0.083968 2.179130
v 0.673388 0.083968 2.072475
v 1.280860 0.083968 1.762955
v 1.762955 0.083968 1.280858
v 2.072475 0.083968 0.673388
v 2.179129 0.083968 0.000000
v 1.519310 0.407394 -0.493654
v 1.292403 0.407394 -0.938986
v 0.938986 0.407394 -1.292403
v 0.493654 0.407394 -1.519310
v 0.000000 0.407394 -1.597497
v -0.493654 0.407394 -1.519309
v -0.938985 0.407394 -1.292402
v -1.292404 0.407394 -0.938985
v -1.519309 0.407394 -0.493654
v -1.597497 0.407394 0.000000
v -1.519309 0.407394 0.493654
v -1.292404 0.407394 0.938985
v -0.938985 0.407394 1.292402
v -0.493654 0.407394 1.519309
v -0.000000 0.407394 1.597496
v 0.493653 0.407394 1.519309
v 0.938985 0.407394 1.292399
v 1.292399 0.407394 0.938985
v 1.519309 0.407394 0.493653
v 1.597496 0.407394 0.000000
v 0.690825 0.157942 -0.224462
v 0.587651 0.157942 -0.426953
v 0.426953 0.157942 -0.587651
v 0.224462 0.157942 -0.690825
v 0.000000 0.157942 -0.726378
v -0.224462 0.157942 -0.690825
v -0.426953 0.157942 -0.587651
v -0.587652 0.157942 -0.426953
v -0.690825 0.157942 -0.224463
v -0.726377 0.157942 0.000000
v -0.690825 0.157942 0.224463
v -0.587652 0.157942 0.426954
v -0.426954 0.157942 0.587652
v -0.224463 0.157942 0.690825
v -0.000000 0.157942 0.726377
v 0.224463 0.157942 0.690824
v 0.426954 0.157942 0.587651
v 0.587651 0.157942 0.426954
v 0.690824 0.157942 0.224463
v 0.726377 0.157942 0.000000
v 0.000000 -0.083968 0.000000
v 0.000000 0.083968 0.000000
vt 0.250173 0.168902
vt 0.237491 0.193792
vt 0.198102 0.165174
vt 0.203868 0.153857
vt 0.217738 0.213544
vt 0.189120 0.174156
vt 0.192848 0.226226
vt 0.177803 0.179922
vt 0.165258 0.230596
vt 0.165258 0.181909
vt 0.137667 0.226226
vt 0.152713 0.179922
vt 0.112778 0.213544
vt 0.141395 0.174156
vt 0.093025 0.193792
vt 0.132414 0.165174
vt 0.080343 0.168902
vt 0.126647 0.153857
vt 0.075973 0.141312
vt 0.124660 0.141312
vt 0.080343 0.113721
vt 0.126647 0.128766
vt 0.093025 0.088831
vt 0.132414 0.117449
vt 0.112778 0.069079
vt 0.141395 0.108467
vt 0.137667 0.056397
vt 0.152713 0.102701
vt 0.165258 0.052027
vt 0.165258 0.100714
vt 0.192848 0.056397
vt 0.177803 0.102701
vt 0.217738 0.069079
vt 0.189120 0.108467
vt 0.237491 0.088831
vt 0.198102 0.117449
vt 0.250173 0.113721
vt 0.203868 0.128766
vt 0.254543 0.141312
vt 0.205855 0.141312
vt 0.165258 0.141312
vt 0.204670 0.015052
vt 0.241641 0.033890
vt 0.220834 0.062529
vt 0.193730 0.048719
vt 0.270982 0.063231
vt 0.242344 0.084039
vt 0.289821 0.100203
vt 0.256154 0.111142
vt 0.296311 0.141187
vt 0.260912 0.141187
vt 0.289820 0.182171
vt 0.256154 0.171231
vt 0.270982 0.219142
vt 0.242344 0.198335
vt 0.241641 0.248483
vt 0.220834 0.219845
vt 0.204669 0.267321
vt 0.193730 0.233655
vt 0.163686 0.273813
vt 0.163686 0.238413
vt 0.122702 0.267321
vt 0.133641 0.233655
vt 0.085730 0.248483
vt 0.106537 0.219845
vt 0.056389 0.219142
vt 0.085028 0.198335
vt 0.037551 0.182170
vt 0.071218 0.171231
vt 0.031060 0.141187
vt 0.066459 0.141187
vt 0.037551 0.100203
vt 0.071218 0.111142
vt 0.056389 0.063231
vt 0.085028 0.084039
vt 0.085730 0.033890
vt 0.106537 0.062529
vt 0.122702 0.015052
vt 0.133641 0.048719
vt 0.163686 0.008561
vt 0.163686 0.043960
vt 0.016086 0.798805
vt 0.016086 0.848605
vt 0.000994 0.848605
vt 0.000994 0.798805
vt 0.016086 0.898406
vt 0.000994 0.898406
vt 0.016086 0.948207
vt 0.000994 0.948207
vt 0.016086 0.001992
vt 0.000994 0.001992
vt 0.016086 0.051793
vt 0.000994 0.051793
vt 0.016086 0.101594
vt 0.000994 0.101594
vt 0.016086 0.151394
vt 0.000994 0.151394
vt 0.016086 0.201195
vt 0.000994 0.201195
vt 0.016086 0.250996
vt 0.000994 0.250996
vt 0.016086 0.300797
vt 0.000994 0.300797
vt 0.016086 0.350598
vt 0.000994 0.350598
vt 0.016086 0.400398
vt 0.000994 0.400398
vt 0.016086 0.450199
vt 0.000994 0.450199
vt 0.016086 0.500000
vt 0.000994 0.500000
vt 0.016086 0.549801
vt 0.000994 0.549801
vt 0.016086 0.599602
vt 0.000994 0.599602
vt 0.016086 0.649402
vt 0.000994 0.649402
vt 0.016086 0.699203
vt 0.000994 0.699203
vt 0.016086 0.749004
vt 0.000994 0.749004
vt 0.016086 0.998008
vt 0.000995 0.998008
vt 0.123526 0.437813
vt 0.130019 0.450555
vt 0.093038 0.477424
vt 0.080053 0.451939
vt 0.140131 0.460668
vt 0.113264 0.497649
vt 0.152874 0.467161
vt 0.138749 0.510634
vt 0.167000 0.469398
vt 0.167000 0.515108
vt 0.181125 0.467161
vt 0.195251 0.510634
vt 0.193867 0.460668
vt 0.220735 0.497649
vt 0.203981 0.450555
vt 0.240961 0.477424
vt 0.210473 0.437813
vt 0.253947 0.451938
vt 0.212710 0.423687
vt 0.258420 0.423687
vt 0.210473 0.409562
vt 0.253946 0.395437
vt 0.203981 0.396819
vt 0.240961 0.369951
vt 0.193867 0.386707
vt 0.220736 0.349726
vt 0.181125 0.380214
vt 0.195251 0.336741
vt 0.167000 0.377977
vt 0.167000 0.332266
vt 0.152874 0.380214
vt 0.138749 0.336741
vt 0.140131 0.386707
vt 0.113264 0.349726
vt 0.130019 0.396820
vt 0.093038 0.369951
vt 0.123526 0.409562
vt 0.080053 0.395436
vt 0.121289 0.423687
vt 0.075579 0.423687
vt 0.056058 0.504292
vt 0.036580 0.466063
vt 0.086396 0.534629
vt 0.124624 0.554108
vt 0.167000 0.560819
vt 0.209376 0.554108
vt 0.247603 0.534629
vt 0.277941 0.504291
vt 0.297419 0.466064
vt 0.304132 0.423687
vt 0.297419 0.381311
vt 0.277941 0.343083
vt 0.247603 0.312745
vt 0.209376 0.293267
vt 0.167000 0.286555
vt 0.124624 0.293267
vt 0.086396 0.312745
vt 0.056058 0.343084
vt 0.036580 0.381312
vt 0.029868 0.423687
vt 0.167000 0.423687
vn 0.000000 -1.000000 -0.000000
vn 0.000000 -1.000000 0.000000
vn 0.000000 -1.000000 -0.000000
vn 0.000000 -1.000000 -0.000000
vn 0.000000 -1.000000 0.000000
vn 0.000000 -1.000000 0.000000
vn 0.000000 -1.000000 0.000000
vn 0.000000 -1.000000 0.000000
vn 0.000000 -1.000000 0.000000
vn 0.000000 -1.000000 -0.000000
vn 0.000000 -1.000000 -0.000000
vn 0.000000 -1.000000 0.000000
vn 0.000000 -1.000000 0.000000
vn 0.000000 -1.000000 0.000000
vn 0.000000 -1.000000 0.000000
vn 0.000000 -1.000000 -0.000000
vn 0.000000 -1.000000 -0.000000
vn 0.000000 -1.000000 -0.000000
vn 0.000000 -1.000000 0.000000
vn 0.000000 -1.000000 -0.000000
vn 0.000000 -1.000000 0.000000
vn 0.000000 -1.000000 -0.000000
vn 0.000000 -1.000000 0.000000
vn 0.000000 -1.000000 0.000000
vn 0.000000 -1.000000 -0.000000
vn 0.000000 -1.000000 0.000000
vn 0.000000 -1.000000 -0.000000
vn 0.000000 -1.000000 0.000000
vn 0.000000 -1.000000 -0.000000
vn 0.000000 -1.000000 0.000000
vn 0.000000 -1.000000 -0.000000
vn 0.000000 -1.000000 0.000000
vn 0.000000 -1.000000 -0.000000
vn 0.000000 -1.000000 0.000000
vn 0.000000 -1.000000 0.000000
vn 0.000000 -1.000000 0.000000
vn 0.000000 -1.000000 -0.000000
vn 0.000000 -1.000000 0.000000
vn 0.000000 -1.000000 -0.000000
vn 0.000000 -1.000000 -0.000000
vn 0.000000 -1.000000 -0.000000
vn 0.000000 -1.000000 -0.000000
vn 0.000000 -1.000000 0.000000
vn 0.000000 -1.000000 -0.000000
vn 0.000000 -1.000000 -0.000000
vn 0.000000 -1.000000 0.000000
vn 0.000000 -1.000000 0.000000
vn 0.000000 -1.000000 -0.000000
vn 0.000000 -1.000000 -0.000000
vn 0.000000 -1.000000 -0.000000
vn 0.000000 -1.000000 -0.000000
vn 0.000000 -1.000000 0.000000
vn 0.000000 -1.000000 0.000000
vn 0.000000 -1.000000 0.000000
vn 0.000000 -1.000000 0.000000
vn 0.000000 -1.000000 0.000000
vn 0.000000 -1.000000 0.000000
vn 0.000000 -1.000000 0.000000
vn 0.000000 -1.000000 -0.000000
vn 0.000000 -1.000000 -0.000000
vn 0.951057 0.000000 -0.309017
vn 0.809017 0.000000 -0.587786
vn 0.809017 0.000000 -0.587786
vn 0.951057 0.000000 -0.309017
vn 0.587788 0.000000 -0.809015
vn 0.587788 0.000000 -0.809015
vn 0.309018 0.000000 -0.951056
vn 0.309018 0.000000 -0.951056
vn -0.000004 0.000000 -1.000000
vn -0.000004 0.000000 -1.000000
vn -0.309019 0.000000 -0.951056
vn -0.309019 0.000000 -0.951056
vn -0.587787 0.000000 -0.809016
vn -0.587787 0.000000 -0.809016
vn -0.809017 0.000000 -0.587786
vn -0.809017 0.000000 -0.587786
vn -0.951056 0.000000 -0.309019
vn -0.951056 0.000000 -0.309019
vn -1.000000 0.000000 0.000000
vn -1.000000 0.000000 0.000000
vn -0.951057 0.000000 0.309016
vn -0.951057 0.000000 0.309016
vn -0.809017 0.000000 0.587786
vn -0.809017 0.000000 0.587786
vn -0.587785 0.000000 0.809017
vn -0.587785 0.000000 0.809017
vn -0.309016 0.000000 0.951057
vn -0.309016 0.000000 0.951057
vn 0.000000 0.000000 1.000000
vn 0.000000 0.000000 1.000000
vn 0.309015 0.000000 0.951057
vn 0.309015 0.000000 0.951057
vn 0.587785 0.000000 0.809017
vn 0.587785 0.000000 0.809017
vn 0.809018 0.000000 0.587784
vn 0.809018 0.000000 0.587784
vn 0.951057 0.000000 0.309016
vn 0.951057 0.000000 0.309016
vn 1.000000 0.000000 0.000001
vn 1.000000 0.000000 0.000001
vn 0.462197 0.873968 -0.150177
vn 0.393169 0.873968 -0.285654
vn 0.393169 0.873968 -0.285654
vn 0.462197 0.873968 -0.150177
vn 0.285654 0.873968 -0.393168
vn 0.285654 0.873968 -0.393168
vn 0.150177 0.873969 -0.462196
vn 0.150177 0.873969 -0.462196
vn -0.000001 0.873969 -0.485982
vn -0.000001 0.873969 -0.485982
vn -0.150177 0.873968 -0.462197
vn -0.150178 0.873968 -0.462197
vn -0.285655 0.873968 -0.393169
vn -0.285654 0.873968 -0.393169
vn -0.393170 0.873967 -0.285655
vn -0.393170 0.873967 -0.285654
vn -0.462198 0.873968 -0.150177
vn -0.462198 0.873968 -0.150177
vn -0.485983 0.873969 0.000000
vn -0.485983 0.873968 0.000000
vn -0.462198 0.873968 0.150176
vn -0.462198 0.873968 0.150176
vn -0.393169 0.873968 0.285654
vn -0.393169 0.873968 0.285654
vn -0.285653 0.873968 0.393169
vn -0.285653 0.873968 0.393169
vn -0.150177 0.873968 0.462197
vn -0.150176 0.873968 0.462197
vn -0.000000 0.873968 0.485983
vn 0.000000 0.873968 0.485983
vn 0.150177 0.873969 0.462197
vn 0.150177 0.873969 0.462197
vn 0.285653 0.873969 0.393167
vn 0.285653 0.873969 0.393167
vn 0.393168 0.873969 0.285652
vn 0.393167 0.873969 0.285653
vn 0.462197 0.873969 0.150177
vn 0.462197 0.873969 0.150177
vn 0.485983 0.873968 0.000001
vn 0.485983 0.873968 0.000001
vn -0.261819 0.961361 0.085070
vn -0.222716 0.961361 0.161812
vn -0.182128 0.974331 0.132323
vn -0.212769 0.974654 0.069132
vn -0.161812 0.961361 0.222716
vn -0.131498 0.974654 0.180992
vn -0.085070 0.961361 0.261819
vn -0.069566 0.974331 0.214103
vn 0.000000 0.961361 0.275292
vn 0.000000 0.974654 0.223718
vn 0.085070 0.961361 0.261819
vn 0.069567 0.974331 0.214103
vn 0.161812 0.961361 0.222716
vn 0.131498 0.974654 0.180992
vn 0.222716 0.961361 0.161812
vn 0.182128 0.974331 0.132323
vn 0.261819 0.961361 0.085070
vn 0.212768 0.974654 0.069132
vn 0.275292 0.961361 0.000000
vn 0.225122 0.974331 0.000000
vn 0.261819 0.961361 -0.085070
vn 0.212768 0.974654 -0.069132
vn 0.222716 0.961361 -0.161812
vn 0.182128 0.974331 -0.132323
vn 0.161812 0.961361 -0.222717
vn 0.131498 0.974654 -0.180992
vn 0.085070 0.961361 -0.261819
vn 0.069566 0.974331 -0.214104
vn -0.000000 0.961361 -0.275293
vn -0.000000 0.974654 -0.223719
vn -0.085071 0.961360 -0.261819
vn -0.069567 0.974331 -0.214104
vn -0.161813 0.961360 -0.222717
vn -0.131498 0.974654 -0.180992
vn -0.222717 0.961360 -0.161813
vn -0.182128 0.974330 -0.132323
vn -0.261819 0.961361 -0.085071
vn -0.212769 0.974654 -0.069133
vn -0.275292 0.961361 -0.000000
vn -0.225122 0.974331 -0.000000
vn 0.000000 -1.000000 0.000000
vn 0.000000 1.000000 -0.000000
s 1
g pCylinder1
usemtl initialShadingGroup
f 1/124/1 2/125/2 22/126/3 21/127/4
f 2/125/2 3/128/5 23/129/6 22/126/3
f 3/128/5 4/130/7 24/131/8 23/129/6
f 4/130/7 5/132/9 25/133/10 24/131/8
f 5/132/9 6/134/11 26/135/12 25/133/10
f 6/134/11 7/136/13 27/137/14 26/135/12
f 7/136/13 8/138/15 28/139/16 27/137/14
f 8/138/15 9/140/17 29/141/18 28/139/16
f 9/140/17 10/142/19 30/143/20 29/141/18
f 10/142/19 11/144/21 31/145/22 30/143/20
f 11/144/21 12/146/23 32/147/24 31/145/22
f 12/146/23 13/148/25 33/149/26 32/147/24
f 13/148/25 14/150/27 34/151/28 33/149/26
f 14/150/27 15/152/29 35/153/30 34/151/28
f 15/152/29 16/154/31 36/155/32 35/153/30
f 16/154/31 17/156/33 37/157/34 36/155/32
f 17/156/33 18/158/35 38/159/36 37/157/34
f 18/158/35 19/160/37 39/161/38 38/159/36
f 19/160/37 20/162/39 40/163/40 39/161/38
f 20/162/39 1/124/1 21/127/4 40/163/40
f 21/127/4 22/126/3 42/164/41 41/165/42
f 22/126/3 23/129/6 43/166/43 42/164/41
f 23/129/6 24/131/8 44/167/44 43/166/43
f 24/131/8 25/133/10 45/168/45 44/167/44
f 25/133/10 26/135/12 46/169/46 45/168/45
f 26/135/12 27/137/14 47/170/47 46/169/46
f 27/137/14 28/139/16 48/171/48 47/170/47
f 28/139/16 29/141/18 49/172/49 48/171/48
f 29/141/18 30/143/20 50/173/50 49/172/49
f 30/143/20 31/145/22 51/174/51 50/173/50
f 31/145/22 32/147/24 52/175/52 51/174/51
f 32/147/24 33/149/26 53/176/53 52/175/52
f 33/149/26 34/151/28 54/177/54 53/176/53
f 34/151/28 35/153/30 55/178/55 54/177/54
f 35/153/30 36/155/32 56/179/56 55/178/55
f 36/155/32 37/157/34 57/180/57 56/179/56
f 37/157/34 38/159/36 58/181/58 57/180/57
f 38/159/36 39/161/38 59/182/59 58/181/58
f 39/161/38 40/163/40 60/183/60 59/182/59
f 40/163/40 21/127/4 41/165/42 60/183/60
s 2
f 41/82/61 42/83/62 62/84/63 61/85/64
f 42/83/62 43/86/65 63/87/66 62/84/63
f 43/86/65 44/88/67 64/89/68 63/87/66
f 44/88/67 45/122/69 65/123/70 64/89/68
f 45/90/69 46/92/71 66/93/72 65/91/70
f 46/92/71 47/94/73 67/95/74 66/93/72
f 47/94/73 48/96/75 68/97/76 67/95/74
f 48/96/75 49/98/77 69/99/78 68/97/76
f 49/98/77 50/100/79 70/101/80 69/99/78
f 50/100/79 51/102/81 71/103/82 70/101/80
f 51/102/81 52/104/83 72/105/84 71/103/82
f 52/104/83 53/106/85 73/107/86 72/105/84
f 53/106/85 54/108/87 74/109/88 73/107/86
f 54/108/87 55/110/89 75/111/90 74/109/88
f 55/110/89 56/112/91 76/113/92 75/111/90
f 56/112/91 57/114/93 77/115/94 76/113/92
f 57/114/93 58/116/95 78/117/96 77/115/94
f 58/116/95 59/118/97 79/119/98 78/117/96
f 59/118/97 60/120/99 80/121/100 79/119/98
f 60/120/99 41/82/61 61/85/64 80/121/100
s 3
f 61/42/101 62/43/102 82/44/103 81/45/104
f 62/43/102 63/46/105 83/47/106 82/44/103
f 63/46/105 64/48/107 84/49/108 83/47/106
f 64/48/107 65/50/109 85/51/110 84/49/108
f 65/50/109 66/52/111 86/53/112 85/51/110
f 66/52/111 67/54/113 87/55/114 86/53/112
f 67/54/113 68/56/115 88/57/116 87/55/114
f 68/56/115 69/58/117 89/59/118 88/57/116
f 69/58/117 70/60/119 90/61/120 89/59/118
f 70/60/119 71/62/121 91/63/122 90/61/120
f 71/62/121 72/64/123 92/65/124 91/63/122
f 72/64/123 73/66/125 93/67/126 92/65/124
f 73/66/125 74/68/127 94/69/128 93/67/126
f 74/68/127 75/70/129 95/71/130 94/69/128
f 75/70/129 76/72/131 96/73/132 95/71/130
f 76/72/131 77/74/133 97/75/134 96/73/132
f 77/74/133 78/76/135 98/77/136 97/75/134
f 78/76/135 79/78/137 99/79/138 98/77/136
f 79/78/137 80/80/139 100/81/140 99/79/138
f 80/80/139 61/42/101 81/45/104 100/81/140
s 4
f 81/1/141 82/2/142 102/3/143 101/4/144
f 82/2/142 83/5/145 103/6/146 102/3/143
f 83/5/145 84/7/147 104/8/148 103/6/146
f 84/7/147 85/9/149 105/10/150 104/8/148
f 85/9/149 86/11/151 106/12/152 105/10/150
f 86/11/151 87/13/153 107/14/154 106/12/152
f 87/13/153 88/15/155 108/16/156 107/14/154
f 88/15/155 89/17/157 109/18/158 108/16/156
f 89/17/157 90/19/159 110/20/160 109/18/158
f 90/19/159 91/21/161 111/22/162 110/20/160
f 91/21/161 92/23/163 112/24/164 111/22/162
f 92/23/163 93/25/165 113/26/166 112/24/164
f 93/25/165 94/27/167 114/28/168 113/26/166
f 94/27/167 95/29/169 115/30/170 114/28/168
f 95/29/169 96/31/171 116/32/172 115/30/170
f 96/31/171 97/33/173 117/34/174 116/32/172
f 97/33/173 98/35/175 118/36/176 117/34/174
f 98/35/175 99/37/177 119/38/178 118/36/176
f 99/37/177 100/39/179 120/40/180 119/38/178
f 100/39/179 81/1/141 101/4/144 120/40/180
s 1
f 2/125/2 1/124/1 121/184/181 3/128/5
f 4/130/7 3/128/5 121/184/181 5/132/9
f 6/134/11 5/132/9 121/184/181 7/136/13
f 8/138/15 7/136/13 121/184/181 9/140/17
f 10/142/19 9/140/17 121/184/181 11/144/21
f 12/146/23 11/144/21 121/184/181 13/148/25
f 14/150/27 13/148/25 121/184/181 15/152/29
f 16/154/31 15/152/29 121/184/181 17/156/33
f 18/158/35 17/156/33 121/184/181 19/160/37
f 20/162/39 19/160/37 121/184/181 1/124/1
s 4
f 122/41/182 101/4/144 102/3/143 103/6/146
f 122/41/182 103/6/146 104/8/148 105/10/150
f 122/41/182 105/10/150 106/12/152 107/14/154
f 122/41/182 107/14/154 108/16/156 109/18/158
f 122/41/182 109/18/158 110/20/160 111/22/162
f 122/41/182 111/22/162 112/24/164 113/26/166
f 122/41/182 113/26/166 114/28/168 115/30/170
f 122/41/182 115/30/170 116/32/172 117/34/174
f 122/41/182 117/34/174 118/36/176 119/38/178
f 122/41/182 119/38/178 120/40/180 101/4/144
